<p>[gdigrab @ 0000020a1b883580] Capturing whole desktop as 928x506x32 at (668,213)
</p><p>Input #0, gdigrab, from 'desktop':
  Duration: N/A, start: 1520588705.290819, bitrate: 375665 kb/s
    Stream #0:0: Video: bmp, bgra, 928x506, 375665 kb/s</p><p>, 25 fps, 24.83 tbr, 1000k tbn, 1000k tbc
</p><p>Stream mapping:
  Stream #0:0 -> #0:0 (bmp (native) -> h264 (libx264))
Press [q] to stop, [?] for help
</p><p>[libx264 @ 0000020a1a07c900] using cpu capabilities: MMX2 SSE2Fast SSSE3 SSE4.2 AVX FMA3 BMI2 AVX2
</p><p>[libx264 @ 0000020a1a07c900] profile High, level 3.1
</p><p>[libx264 @ 0000020a1a07c900] 264 - core 155 r2901 7d0ff22 - H.264/MPEG-4 AVC codec - Copyleft 2003-2018 - http://www.videolan.org/x264.html - options: cabac=1 ref=3 deblock=1:0:0 analyse=0x3:0x113 me=hex subme=7 psy=1 psy_rd=1.00:0.00 mixed_ref=1 me_range=16 chroma_me=1 trellis=1 8x8dct=1 cqm=0 deadzone=21,11 fast_pskip=1 chroma_qp_offset=-2 threads=12 lookahead_threads=2 sliced_threads=0 nr=0 decimate=1 interlaced=0 bluray_compat=0 constrained_intra=0 bframes=3 b_pyramid=2 b_adapt=1 b_bias=0 direct=1 weightb=1 open_gop=0 weightp=2 keyint=250 keyint_min=25 scenecut=40 intra_refresh=0 rc_lookahead=40 rc=abr mbtree=1 bitrate=1024 ratetol=1.0 qcomp=0.60 qpmin=0 qpmax=69 qpstep=4 ip_ratio=1.40 aq=1:1.00
Output #0, mp4, to 'C:\Users\wwp\desktop\fup00.mp4':
  Metadata:
    encoder         : Lavf57.83.100
    Stream #0:0: Video: h264 (libx264) (avc1 / 0x31637661), yuv420p, 1280x698, q=-1--1, 1024 kb/s, 25 fps, 12800 tbn, 25 tbc
    Metadata:
      encoder         : Lavc57.107.100 libx264
    Side data:
      cpb: </p><p>bitrate max/min/avg: 0/0/1024000 buffer size: 0 vbv_delay: -1
</p><p>frame=   16 fps=0.0 q=0.0 size=       0kB time=00:00:00.00 bitrate=N/A speed=   0x    </p><p>frame=   29 fps= 28 q=0.0 size=       0kB time=00:00:00.00 bitrate=N/A speed=   0x    </p><p>frame=   42 fps= 27 q=0.0 size=       0kB time=00:00:00.00 bitrate=N/A speed=   0x    </p><p>frame=   55 fps= 27 q=0.0 size=       0kB time=00:00:00.00 bitrate=N/A speed=   0x    </p><p>frame=   67 fps= 26 q=23.0 size=       0kB time=00:00:00.32 bitrate=   1.2kbits/s speed=0.125x    </p><p>frame=   80 fps= 26 q=19.0 size=       0kB time=00:00:00.84 bitrate=   0.5kbits/s speed=0.272x    </p><p>frame=   93 fps= 26 q=16.0 size=       0kB time=00:00:01.36 bitrate=   0.3kbits/s speed=0.379x    </p><p>frame=  106 fps= 26 q=12.0 size=       0kB time=00:00:01.88 bitrate=   0.2kbits/s speed=0.459x    </p><p>frame=  118 fps= 26 q=23.0 size=     256kB time=00:00:02.36 bitrate= 888.8kbits/s speed=0.513x    </p><p>frame=  131 fps= 26 q=32.0 size=     768kB time=00:00:02.88 bitrate=2184.6kbits/s speed=0.564x    </p><p>frame=  143 fps= 26 q=37.0 size=    1024kB time=00:00:03.36 bitrate=2496.7kbits/s speed= 0.6x    </p><p>frame=  156 fps= 26 q=38.0 size=    1024kB time=00:00:03.88 bitrate=2162.1kbits/s speed=0.635x    </p><p>frame=  169 fps= 26 q=37.0 size=    1024kB time=00:00:04.40 bitrate=1906.6kbits/s speed=0.665x    </p><p>frame=  171 fps= 25 q=-1.0 Lsize=    1282kB time=00:00:06.72 bitrate=1562.7kbits/s speed=0.984x    
video:1279kB audio:0kB subtitle:0kB other streams:0kB global headers:0kB muxing overhead: 0.217132%
</p><p>[libx264 @ 0000020a1a07c900] frame I:2     Avg QP:15.09  size: 59362
[libx264 @ 0000020a1a07c900]</p><p> frame P:57    Avg QP:24.29  size: 11151
[libx264 @ 0000020a1a07c900] frame B:112   Avg QP:25.13  size:  4953
[libx264 @ 0000020a1a07c900] consecutive B-frames:  8.8% 10.5%  3.5% 77.2%
[libx264 @ 0000020a1a07c900] mb I  I16..4: 42.1% 39.0% 18.9%
[libx264 @ 0000020a1a07c900] mb P  I16..4:  4.1%  4.1%  3.3%  P16..4:  5.2%  1.0%  0.8%  0.0%  0.0%    skip:81.6%
[libx264 @ 0000020a1a07c900] mb B  I16..4:  0.9%  0.3%  1.5%  B16..8:  3.1%  0.3%  0.2%  direct: 0.2%  skip:93.5%  L0:40.8% L1:57.9% BI: 1.3%
[libx264 @ 0000020a1a07c900] final ratefactor: 22.64
[libx264 @ 0000020a1a07c900] 8x8 transform intra:29.8% inter:28.6%
[libx264 @ 0000020a1a07c900] coded y,uvDC,uvAC intra: 27.1% 12.4% 11.3% inter: 1.5% 0.9% 0.7%
[libx264 @ 0000020a1a07c900] i16 v,h,dc,p: 43% 56%  1%  0%
</p><p>[libx264 @ 0000020a1a07c900] i8 v,h,dc,ddl,ddr,vr,hd,vl,hu: 43%  8% 48%  0%  0%  0%  0%  0%  0%
[libx264 @ 0000020a1a07c900] i4 v,h,dc,ddl,ddr,vr,hd,vl,hu: 36% 24% 13%  3%  5%  5%  5%  4%  4%
[libx264 @ 0000020a1a07c900] i8c dc,h,v,p: 76% 16%  7%  1%
[libx264 @ 0000020a1a07c900] Weighted P-Frames: Y:1.8% UV:1.8%
[libx264 @ 0000020a1a07c900] ref P L0: 61.9% 12.0% 18.7%  7.3%
</p><p>[libx264 @ 0000020a1a07c900] ref B L0: 69.0% 26.5%  4.5%
[libx264 @ 0000020a1a07c900] ref B L1: 96.1%  3.9%
[libx264 @ 0000020a1a07c900] kb/s:1531.11
</p>